<svg xmlns="http://www.w3.org/2000/svg" viewBox="0 0 512 512" role="img" aria-label="RepCore">
  <defs>
    <linearGradient id="bgGrad" x1="0" y1="0" x2="512" y2="512" gradientUnits="userSpaceOnUse">
      <stop offset="0" stop-color="#2a2d35"/>
      <stop offset="1" stop-color="#16181d"/>
    </linearGradient>
    <radialGradient id="vignette" cx="256" cy="210" r="280" gradientUnits="userSpaceOnUse">
      <stop offset="0" stop-color="#3a3d45" stop-opacity="0.5"/>
      <stop offset="1" stop-color="#0e1014" stop-opacity="0.9"/>
    </radialGradient>
    <linearGradient id="metalR" x1="100" y1="80" x2="410" y2="410" gradientUnits="userSpaceOnUse">
      <stop offset="0" stop-color="#ffffff"/>
      <stop offset="0.3" stop-color="#e0e6f0"/>
      <stop offset="0.65" stop-color="#b0bac8"/>
      <stop offset="1" stop-color="#707a8a"/>
    </linearGradient>
    <linearGradient id="barG1" x1="0" y1="0" x2="0" y2="1" gradientUnits="objectBoundingBox">
      <stop offset="0" stop-color="#5ab4f0"/><stop offset="1" stop-color="#1a5fd4"/>
    </linearGradient>
    <linearGradient id="barG2" x1="0" y1="0" x2="0" y2="1" gradientUnits="objectBoundingBox">
      <stop offset="0" stop-color="#4aaee8"/><stop offset="1" stop-color="#1857c8"/>
    </linearGradient>
    <linearGradient id="barG3" x1="0" y1="0" x2="0" y2="1" gradientUnits="objectBoundingBox">
      <stop offset="0" stop-color="#3aa0de"/><stop offset="1" stop-color="#1650be"/>
    </linearGradient>
    <filter id="rShadow"><feDropShadow dx="3" dy="5" stdDeviation="9" flood-color="#000" flood-opacity="0.55"/></filter>
    <filter id="barGlow"><feGaussianBlur stdDeviation="2" result="b"/><feMerge><feMergeNode in="b"/><feMergeNode in="SourceGraphic"/></feMerge></filter>
  </defs>
  <rect width="512" height="512" fill="url(#bgGrad)"/>
  <rect width="512" height="512" fill="url(#vignette)"/>
  <g filter="url(#rShadow)">
    <rect x="140" y="84" width="66" height="330" rx="4" fill="url(#metalR)"/>
    <rect x="140" y="84" width="178" height="59" rx="4" fill="url(#metalR)"/>
    <rect x="252" y="84" width="59" height="148" rx="4" fill="url(#metalR)"/>
    <rect x="140" y="173" width="178" height="59" rx="4" fill="url(#metalR)"/>
    <rect x="206" y="97" width="113" height="120" rx="3" fill="#1e2028"/>
    <polygon points="206,232 333,232 390,414 262,414" fill="url(#metalR)"/>
    <polygon points="140,84 206,84 140,150" fill="white" opacity="0.4"/>
  </g>
  <g filter="url(#barGlow)">
    <rect x="122" y="274" width="31" height="93" rx="5" fill="url(#barG1)"/>
    <rect x="161" y="239" width="31" height="128" rx="5" fill="url(#barG2)"/>
    <rect x="200" y="204" width="31" height="163" rx="5" fill="url(#barG3)"/>
  </g>
  <ellipse cx="180" cy="373" cx="180" cy="373" rx="55" ry="9" fill="#2563eb" opacity="0.22"/>
</svg>